<svg width="72" height="72" viewBox="0 0 72 72" fill="none" xmlns="http://www.w3.org/2000/svg">
<g clip-path="url(#clip0_277_183886)">
<rect width="51.74" height="51.74" rx="6.86907" transform="matrix(0.707107 -0.707107 -0.707107 -0.707107 36.6309 72)" fill="url(#paint0_linear_277_183886)"/>
<path fill-rule="evenodd" clip-rule="evenodd" d="M37.3145 51.6289C45.7724 51.6289 52.6289 44.7724 52.6289 36.3145C52.6289 27.8565 45.7724 21 37.3145 21C28.8565 21 22 27.8565 22 36.3145C22 44.7724 28.8565 51.6289 37.3145 51.6289ZM30.508 34.6128C29.5683 34.6128 28.8064 35.3747 28.8064 36.3145C28.8064 37.2542 29.5683 38.0161 30.508 38.0161H44.1209C45.0606 38.0161 45.8225 37.2542 45.8225 36.3145C45.8225 35.3747 45.0606 34.6128 44.1209 34.6128H30.508Z" fill="white" fill-opacity="0.5"/>
<path fill-rule="evenodd" clip-rule="evenodd" d="M36.3145 50.6289C44.7724 50.6289 51.6289 43.7724 51.6289 35.3145C51.6289 26.8565 44.7724 20 36.3145 20C27.8565 20 21 26.8565 21 35.3145C21 43.7724 27.8565 50.6289 36.3145 50.6289ZM29.508 33.6128C28.5683 33.6128 27.8064 34.3747 27.8064 35.3145C27.8064 36.2542 28.5683 37.0161 29.508 37.0161H43.1209C44.0606 37.0161 44.8225 36.2542 44.8225 35.3145C44.8225 34.3747 44.0606 33.6128 43.1209 33.6128H29.508Z" fill="#333333"/>
</g>
<defs>
<linearGradient id="paint0_linear_277_183886" x1="25.3899" y1="-18.542" x2="23.1072" y2="74.2853" gradientUnits="userSpaceOnUse">
<stop offset="0.0513567" stop-color="#FFD201"/>
<stop offset="1" stop-color="#E97601"/>
</linearGradient>
<clipPath id="clip0_277_183886">
<rect width="72" height="72" fill="white"/>
</clipPath>
</defs>
</svg>
